<?xml version="1.0" encoding="utf-8"?>
<!-- Generator: Adobe Illustrator 28.3.0, SVG Export Plug-In . SVG Version: 6.00 Build 0)  -->
<svg version="1.1" id="Logo" xmlns="http://www.w3.org/2000/svg" xmlns:xlink="http://www.w3.org/1999/xlink" x="0px" y="0px"
	 viewBox="0 0 4900 577" style="enable-background:new 0 0 4900 577;" xml:space="preserve">
<style type="text/css">
	.st0{fill:#003C3C;}
	.st1{fill:#00787A;}
</style>
<g>
	<path class="st0" d="M1298.9,267.1c-29.6-13.6-69.1-24.9-118.7-34c-45.2-11-77.6-15.3-105.1-39.2c-17.8-17.8-12.8-53,8.4-65.5
		c23.7-16.9,81.3-17.1,107.5,0c26,14.8,25.8,31.9,36.8,41.6c3.4,3,9.2,3.2,15.6,3.2h111.9c5.7,0,10.3-4.6,10.3-10.3
		c-13.1-215.1-448.3-221.3-449.2,6.4c-3.3,146.5,158.3,157.2,269.3,189.4c17.6,5.9,30.5,12.5,38.8,20s12.4,17.1,12.4,28.8
		c-2.4,44.1-48.5,52.8-93.5,53.5c-25.6,0-45.2-6.2-61.5-13.6c-41.2-18.2-29-48.4-61.5-48.8l-108.1-0.1c-5.7,0-10.3,4.6-10.3,10.3
		c3.1,196.6,353,215.1,452.1,85.3c37.7-44.6,40.6-127.4,10-174.2C1350.1,298.3,1328.4,280.7,1298.9,267.1z"/>
	<path class="st0" d="M1934.3,7.4H1834c-10.7,0-20.1,5.7-28.1,16.9l-114.8,207.1l-0.4-0.7l0,0l-0.4,0.7L1575.5,24.3
		c-8-11.2-17.4-16.9-28.1-16.9H1447c-10.5,0-13.6,0-17.1,3.5s-5.8,9.4,1.8,22.3L1618,376.8v182.3c0,5.7,4.7,10.5,10.4,10.5h124.5
		c5.7,0,10.4-4.7,10.4-10.4V376.9l186.3-343.7c7.6-12.9,5.3-18.8,1.8-22.3C1948,7.4,1944.8,7.4,1934.3,7.4z"/>
	<path class="st0" d="M2965.2,29.9c-2.3-6.2-5.1-11.8-10.4-16.1c-5.4-4.3-12.3-6.4-20.9-6.4H2815c-8.6,0-15.5,2.1-20.9,6.4
		s-8.1,9.7-10.4,16.1L2595,545.4c-0.5,1.6-5.9,13.8-0.4,19.8c2.8,3.1,3.5,4.4,16.5,4.3h98.8c13.4,0,22.2-5.6,26.5-16.9l30.5-81.9
		h214.4l31.3,81.9c4.3,11.2,12.8,16.9,25.7,16.9h98.8c10.9,0.1,12.1,0.4,16.5-4.5c5.4-6.1-0.4-19.5-0.4-19.5L2965.2,29.9z
		 M2799.8,355.1l74.7-212l74.7,212H2799.8z"/>
	<path class="st0" d="M3581.2,282.1c0,0,165.4-251.2,165.7-251.7c4.8-7.9,2.9-15.9-0.5-19.3c-3.9-3.9-12.7-3.7-17.5-3.7h-109.1
		c-11.8,0-21.1,5.6-28.1,16.9l-97.1,145.4L3399,24.4c-7.7-9.4-15.1-17.1-28.1-16.9h-116.4c-4.8,0-13.6-0.3-17.5,3.7
		c-3.4,3.4-5.3,11.4-0.5,19.3c2.3,3.5,165.8,252.5,165.8,252.5S3225,546,3224.7,546.5c-4.8,7.9-2.7,15.8,0.5,19.2
		c3.2,3.4,7.9,3.9,12,3.8h120.1c12.3,0,21.4-5.4,27.3-16.1l105.2-154.1l106,154.1c7.5,10.7,16.8,16.1,28.1,16.1h118.5
		c5.2-0.2,12.8,1.4,17.5-3.7c3.3-3.5,5.3-11.4,0.5-19.3C3759.9,546.1,3581.2,282.1,3581.2,282.1z"/>
	<path class="st0" d="M2504.6,7.4H2389c-5.7,0-10.4,4.6-10.4,10.4v244.3c-41.8-84.6-132.1-190.6-203.8-246.7c-6.6-4.6-10.5-8-27.3-8
		c-11.3,0-86.7,0-86.7,0c-5.7,0-10.4,4.6-10.4,10.4v541.3c0,5.7,4.6,10.4,10.4,10.4h115.8c5.7,0,10.4-4.6,10.4-10.4l-0.1-330.4
		c75.9,75.9,160.7,205.6,195.7,325.1c4,11.6,9,15.5,23.8,15.5c0.9,0,98.3,0.2,98.3,0.2c5.7,0,10.4-4.6,10.4-10.4V17.8
		C2515,12.1,2510.3,7.4,2504.6,7.4z"/>
	<path class="st0" d="M4889.1,7.4h-115.7c-5.7,0-10.4,4.6-10.4,10.4v244.3c-41.8-84.6-132.1-190.6-203.8-246.7
		c-6.6-4.6-10.5-8-27.3-8c-11.3,0-86.7,0-86.7,0c-5.7,0-10.4,4.6-10.4,10.4v541.3c0,5.7,4.6,10.4,10.4,10.4H4561
		c5.7,0,10.4-4.6,10.4-10.4l-0.1-330.4c75.9,75.9,160.7,205.6,195.7,325.1c4,11.6,9,15.5,23.8,15.5c0.9,0,98.3,0.2,98.3,0.2
		c5.7,0,10.4-4.6,10.4-10.4V17.8C4899.5,12.1,4894.9,7.4,4889.1,7.4z"/>
	<path class="st0" d="M4255.2,57.3C4214.7,19,4146.9-0.1,4079,0c-67.8-0.1-135.7,19-176.2,57.3c-43.8,38.2-67.1,92.6-69.8,163.1
		c-1.1,26.9-1.1,111.4,0,138.6c2.7,71.6,25.5,125.8,68.6,162.7c39.3,37,108.4,55.4,177.4,55.3c69,0.1,138-18.4,177.4-55.3
		c43.1-36.9,65.9-91.1,68.6-162.7c1.1-27.3,1.1-111.7,0-138.6C4322.3,149.8,4299.1,95.5,4255.2,57.3z M4148.8,435.1
		c-15.7,17.8-42.7,26.6-69.7,26.5c-27,0.1-54-8.7-69.7-26.5c-33.1-34.9-28-90.1-28.7-146.7c0.7-57.4-4.6-111.5,29.1-146.7
		c16.1-17.8,42.7-26.5,69.3-26.5c26.6-0.1,53.3,8.7,69.3,26.5c33.6,35.1,28.4,89.2,29.1,146.7C4176.8,345,4181.9,400.3,4148.8,435.1
		z"/>
</g>
<g>
	<path class="st0" d="M660.3,556l-98.5-340.6c-2-6.8-10-9.8-15.9-6L5.3,550c-8.8,5.7-4.9,19.4,5.6,19.5H650
		C657.1,569.6,662.2,562.8,660.3,556z"/>
	<path class="st1" d="M159.1,324.3c1.8,6.1,8.9,8.8,14.2,5.3L656,25.5c7.9-5.1,4.3-17.3-5-17.4H80.5c-6.3-0.1-11,6-9.2,12.1
		L159.1,324.3z"/>
</g>
</svg>
